<svg xmlns="http://www.w3.org/2000/svg" width="143.789" height="143.789" viewBox="0 0 143.789 143.789"><defs><style>.a{fill:#23cef0;}.b{fill:#fff;}</style></defs><g transform="translate(-1015.18 -2160.705)"><g transform="translate(1015.18 2160.705)"><ellipse class="a" cx="59.762" cy="59.762" rx="59.762" ry="59.762" transform="matrix(0.23, -0.973, 0.973, 0.23, 0, 116.327)"/></g><g transform="translate(1052.933 2198.458)"><g transform="translate(0 0)"><path class="b" d="M332.958,173.729H321.575l-5.306-10.024a6.817,6.817,0,0,0-6.035-3.632H310.2V145.616a15.152,15.152,0,0,0-15.133-15.132,16.746,16.746,0,0,0-16.733,16.731v13.248a6.825,6.825,0,0,0-3.746,3.242c-.017.03-.032.065-.046.1l-7.847,18.954a11.583,11.583,0,0,0,10.7,16.009h55.565a1.138,1.138,0,0,0,1.138-1.138V174.866a1.138,1.138,0,0,0-1.138-1.138Zm-29.589-13.656v-.816a9.079,9.079,0,0,0,2.2-4.874h.075a4.524,4.524,0,0,0,2.276-.612v6.3ZM295.4,166.43l-5.69-5.692v-1.481a9.086,9.086,0,0,0,10.587,2.279Zm-3.852-18.875a10.148,10.148,0,0,0,7.893-3.733,5.32,5.32,0,0,0,3.926,3.608v5.815a6.824,6.824,0,0,1-11.912,4.552h2.808v-2.276H290.1a6.747,6.747,0,0,1-.394-2.276v-5.69Zm16.372,2.276a2.279,2.279,0,0,1-2.276,2.276v-4.552A2.279,2.279,0,0,1,307.921,149.83Zm-5.643,11.429-.048-.049h.048Zm-14.842-9.153a2.276,2.276,0,0,1,0-4.552Zm-1.138,2.131a4.47,4.47,0,0,0,1.138.145v1.138a1.137,1.137,0,0,1-1.138-1.138Zm1.8,8.111,5.69,5.69-2.632,2.632L287,162.349Zm14.6,0h1.1l-4.16,8.323-2.632-2.632Zm-22.094-15.132a14.472,14.472,0,0,1,14.455-14.455,12.871,12.871,0,0,1,12.857,12.857v.273a4.524,4.524,0,0,0-2.276-.612h-1.138a3.032,3.032,0,0,1-2.967-2.433l-.47-2.341a1.138,1.138,0,0,0-2.171-.2,7.875,7.875,0,0,1-7.348,4.976h-4.114a4.551,4.551,0,0,0-3.416,7.56v1.545a3.422,3.422,0,0,0,3.416,3.414v2.276h-6.828Zm1.2,37.117a1.136,1.136,0,0,0,1.079.777h6.827v11.38H277.393a9.3,9.3,0,0,1-8.594-12.863l7.824-18.9a4.533,4.533,0,0,1,4-2.378h3.838l5.375,10.751a1.138,1.138,0,0,0,1.823.3l3.746-3.746,3.747,3.746a1.138,1.138,0,0,0,1.823-.3l5.375-10.751h3.885a4.544,4.544,0,0,1,4.023,2.421L319,173.731H305.644a1.138,1.138,0,0,0-1.138,1.138v10.364a7.95,7.95,0,0,0-5.69-2.4H283.7l-2.017-6.052-2.16.72Zm16.931,7.185-2.114.845,1.65,4.128h-6.284v-11.38h6.828a5.7,5.7,0,0,1,5.69,5.69v3.94l-2.368-5.525-2.094.9,2.734,6.378h-2.055Zm33.083,4.973H306.783V176.007H331.82Z" transform="translate(-265.814 -130.484)"/><path class="b" d="M304.422,175.228a4.551,4.551,0,1,0-4.552-4.552,4.549,4.549,0,0,0,4.552,4.552Zm0-6.828a2.277,2.277,0,1,1-2.276,2.276,2.277,2.277,0,0,1,2.276-2.276Z" transform="translate(-250.934 -114.913)"/></g></g></g></svg>