<svg xmlns="http://www.w3.org/2000/svg" width="196.518" height="22.596" viewBox="0 0 196.518 22.596"><defs><style>.a{fill:#182137;}.b{fill:#23cef0;}</style></defs><path class="a" d="M42.335,33.7h2.41c1.123,0,3.727,0,3.727-2.616,0-2.574-2.648-2.574-3.929-2.574H42.335ZM36.643,23.648h7.621c4.287,0,5.89.6,7.136,1.569a7.158,7.158,0,0,1,2.727,5.789,7.623,7.623,0,0,1-2.45,5.71c-1.6,1.248-3.164,1.853-6.771,1.853H42.335V45.4H36.643Z" transform="translate(15.283 -23.207)"/><path class="a" d="M57.772,30.4h-.081l-5.254,15H46.066l9.3-21.754h4.692L69.279,45.4H62.866Z" transform="translate(27.636 -23.207)"/><path class="a" d="M82.9,37.491h0c-1.363,5.186-6.131,8.562-11.749,8.562-7.3,0-12.229-5.428-12.229-11.3,0-5.59,4.573-11.3,12.151-11.3,7.3,0,11.187,5.267,11.827,8.684H76.688a6.041,6.041,0,0,0-5.615-3.778,6.165,6.165,0,0,0-6.214,6.353,6.251,6.251,0,0,0,6.214,6.473,6.143,6.143,0,0,0,5.615-3.7Z" transform="translate(44.488 -23.457)"/><path class="a" d="M77.153,28.513H72.578V23.648H87.612v4.865H83.085V45.4H77.153Z" transform="translate(62.39 -23.207)"/><path class="a" d="M82.851,23.648h5.938V45.4H82.851Z" transform="translate(75.856 -23.207)"/><path class="a" d="M95.545,45.4H89.167l9.3-21.754h4.694L112.382,45.4h-6.454l-5.055-15h-.117Z" transform="translate(84.136 -23.207)"/><path class="b" d="M54.431,23.525h0a.229.229,0,0,0-.243.2v8.444h-.721V24.211a.257.257,0,0,0-.24-.2.217.217,0,0,0-.2.2v8L52.264,34.3V24.814a.213.213,0,0,0-.2-.2.216.216,0,0,0-.2.2V34.3H51.1V25.5a.225.225,0,0,0-.2-.24.262.262,0,0,0-.238.24V34.3h-.723V25.5a.226.226,0,0,0-.2-.24.258.258,0,0,0-.24.24V36.76h-.721V31.488a.266.266,0,0,0-.247-.2.215.215,0,0,0-.2.2V36.76h-.721V31.488a.268.268,0,0,0-.243-.2.218.218,0,0,0-.2.2v6.475h-.758V36.556a.189.189,0,0,0-.2-.2.225.225,0,0,0-.24.2v1.407h-.721V35.11a.19.19,0,0,0-.2-.2.222.222,0,0,0-.24.2v7.638h-.723V34.023a.221.221,0,0,0-.238-.2.188.188,0,0,0-.2.2v8.724h-.723V33.339a.26.26,0,0,0-.24-.2.215.215,0,0,0-.2.2v8.282l-.76-.763v-7.52a.2.2,0,1,0-.4,0v2.616h-.763V33.339a.214.214,0,0,0-.2-.2.26.26,0,0,0-.24.2v2.616h-.721V33.339a.26.26,0,0,0-.24-.2.213.213,0,0,0-.2.2v2.653c0,.042-.042.083-.042.12v4.626h-.682V34.465a.227.227,0,0,0-.243-.2.192.192,0,0,0-.2.2v4.987l-.76-1.123V27.47a.192.192,0,0,0-.2-.2.227.227,0,0,0-.243.2V37.684l-.719-1.128V26.381a.228.228,0,0,0-.2-.24.261.261,0,0,0-.243.24v8.765H34.7V26.381a.26.26,0,0,0-.24-.24.226.226,0,0,0-.2.24v8.765h-.721V26.381a.261.261,0,0,0-.243-.24.226.226,0,0,0-.2.24V40.016h-.763V26.381a.225.225,0,0,0-.2-.24.228.228,0,0,0-.2.24V39.13h-.76V34.948a.19.19,0,0,0-.2-.2.225.225,0,0,0-.24.2v4.423l-.721,1.809V31.893a.262.262,0,0,0-.24-.2.217.217,0,0,0-.2.2V41.984H28.85V29.723a.259.259,0,0,0-.24-.2.214.214,0,0,0-.2.2V41.984h-.763V29.723a.2.2,0,1,0-.4,0V42.87h-.763V29.723a.216.216,0,0,0-.2-.2.259.259,0,0,0-.24.2V42.87h-.721V34.224a.262.262,0,0,0-.24-.2.257.257,0,0,0-.2.2V42.87h-.321V41.18a.15.15,0,0,0-.042-.122l-.36-.361V35.551a.224.224,0,0,0-.238-.2.189.189,0,0,0-.2.2V40.3l-.36-.319c-.042-.042-.081-.083-.12-.083h-.282V36.919a.2.2,0,1,0-.4,0v2.974h-.763V37.642a.192.192,0,0,0-.2-.2.229.229,0,0,0-.243.2v2.251H20.63V37.642a.229.229,0,0,0-.243-.2.22.22,0,0,0-.2.2v5.1h-.721V40.9a.225.225,0,0,0-.24-.2.19.19,0,0,0-.2.2V44.52h-.765V40.9a.2.2,0,1,0-.4,0V44.52H17.1v-.726a.19.19,0,0,0-.2-.2.225.225,0,0,0-.24.2v.726H14.332a.148.148,0,0,0-.159.159V45.4a.148.148,0,0,0,.159.159h40.1a.221.221,0,0,0,.2-.2V23.728A.192.192,0,0,0,54.431,23.525Z" transform="translate(-14.173 -23.368)"/></svg>