<svg xmlns="http://www.w3.org/2000/svg" width="143.789" height="143.789" viewBox="0 0 143.789 143.789"><defs><style>.a{fill:#182137;}.b{fill:#fff;stroke:#fff;stroke-miterlimit:10;stroke-width:0.423px;}</style></defs><g transform="translate(-1015.18 -2160.705)"><g transform="translate(1015.18 2160.705)"><ellipse class="a" cx="59.762" cy="59.762" rx="59.762" ry="59.762" transform="matrix(0.23, -0.973, 0.973, 0.23, 0, 116.327)"/></g><g transform="translate(370.327 1920.587)"><g transform="translate(685.747 278.055)"><path class="b" d="M747.748,320.311a6.872,6.872,0,0,0-1.321-4.042c-.051-.072-.106-.142-.161-.212a5.83,5.83,0,0,0,.436-2.209,5.994,5.994,0,0,0-1.291-3.692,5.007,5.007,0,0,0,.333-1.8c0-.091,0-.182-.009-.273a5.761,5.761,0,0,0-11.473.273,5.019,5.019,0,0,0,.333,1.8,6.009,6.009,0,0,0-1.291,3.691,5.8,5.8,0,0,0,.436,2.21,6.93,6.93,0,0,0-1.478,4.254,7.452,7.452,0,0,0,6.986,7.2l.021,7.013h-8.2V283.482h.741a.774.774,0,0,0,.775-.773l0-3.879a.774.774,0,0,0-.773-.775h-31.16a.774.774,0,0,0-.775.775v3.879a.773.773,0,0,0,.775.773h.462v21.791a.893.893,0,0,0-.091.121c-.03.07-3.329,6.86-14.7,9.981-.019.006-.034.017-.051.024a.746.746,0,0,0-.115.055.815.815,0,0,0-.133.091,1.121,1.121,0,0,0-.085.087.634.634,0,0,0-.091.133.684.684,0,0,0-.049.112.726.726,0,0,0-.034.169c0,.027-.015.049-.015.075v.584a2.7,2.7,0,0,0,1.558,2.433v15.389h-.7a.773.773,0,0,0-.773.773l0,3.9a.773.773,0,0,0,.775.773h60.367a.774.774,0,0,0,.775-.773v-3.9a.774.774,0,0,0-.775-.773h-6.155l-.021-7.017a7.453,7.453,0,0,0,6.951-7.2ZM701.426,279.6h29.612v2.331H701.426Zm28.1,3.879v51.044H702.659V283.482ZM688.444,317.85a1.146,1.146,0,0,1-1.128-.956h2.256a1.148,1.148,0,0,1-1.128.956Zm12.667-9.778v7.274h-9.967A24.369,24.369,0,0,0,701.111,308.072Zm-.017,8.821a1.143,1.143,0,0,1-2.255,0Zm-3.839,0a1.144,1.144,0,0,1-2.256,0Zm-3.843,0a1.143,1.143,0,0,1-2.255,0Zm-4.556,2.461a2.248,2.248,0,0,1,3.432.042,2.681,2.681,0,0,1,3.839,0,2.681,2.681,0,0,1,3.839,0,2.652,2.652,0,0,0,1.146-.265v15.394H688.855ZM746.2,338.422H687.381v-2.349H746.2Zm-12.392-18.111a5.415,5.415,0,0,1,1.415-3.616.775.775,0,0,0,.115-.868,4.332,4.332,0,0,1-.481-1.98,4.494,4.494,0,0,1,1.215-3.038.771.771,0,0,0,.123-.868,3.551,3.551,0,0,1-.38-1.587,4.219,4.219,0,0,1,8.379-.19c0,.063.006.127.006.19a3.51,3.51,0,0,1-.381,1.587.775.775,0,0,0,.124.872,4.493,4.493,0,0,1,1.215,3.038,4.38,4.38,0,0,1-.481,1.98.766.766,0,0,0,.115.864c.14.154.266.315.387.478a5.341,5.341,0,0,1,1.027,3.138,5.888,5.888,0,0,1-5.408,5.639l-.009-2.822,2.185-2.185a.774.774,0,0,0-1.095-1.095l-1.1,1.1-.006-2.219a.775.775,0,0,0-.775-.771h0a.772.772,0,0,0-.771.776l.006,2.123-1.007-1.007a.774.774,0,0,0-1.095,1.095l2.108,2.107.009,2.905a5.9,5.9,0,0,1-5.446-5.644Z" transform="translate(-685.747 -278.055)"/><path class="b" d="M702.339,311.422h3.888a.774.774,0,0,0,.775-.773v-4.027a2.718,2.718,0,0,0-5.437,0v4.027A.776.776,0,0,0,702.339,311.422Zm.773-4.8a1.17,1.17,0,1,1,2.34,0v3.253h-2.34Z" transform="translate(-681.868 -271.715)"/><path class="b" d="M702.339,302.9h3.888a.774.774,0,0,0,.775-.773V298.1a2.718,2.718,0,1,0-5.437,0v4.027A.776.776,0,0,0,702.339,302.9Zm.773-4.8a1.17,1.17,0,0,1,2.34,0v3.254h-2.34Z" transform="translate(-681.868 -273.805)"/><path class="b" d="M702.339,319.912h3.888a.774.774,0,0,0,.775-.773v-4.027a2.718,2.718,0,1,0-5.437,0v4.027A.776.776,0,0,0,702.339,319.912Zm.773-4.8a1.17,1.17,0,1,1,2.34,0v3.253h-2.34Z" transform="translate(-681.868 -269.633)"/><path class="b" d="M702.339,294.329h3.888a.775.775,0,0,0,.775-.775v-4.027a2.718,2.718,0,0,0-5.437,0v4.027A.774.774,0,0,0,702.339,294.329Zm.773-4.8a1.17,1.17,0,0,1,2.34,0v3.254h-2.34Z" transform="translate(-681.868 -275.908)"/><path class="b" d="M708.648,311.422h3.888a.772.772,0,0,0,.773-.773v-4.027a2.718,2.718,0,0,0-5.436,0v4.027A.773.773,0,0,0,708.648,311.422Zm.773-4.8a1.17,1.17,0,1,1,2.34,0v3.253h-2.34Z" transform="translate(-680.32 -271.715)"/><path class="b" d="M708.648,302.9h3.888a.773.773,0,0,0,.773-.773V298.1a2.718,2.718,0,1,0-5.436,0v4.027A.773.773,0,0,0,708.648,302.9Zm.773-4.8a1.17,1.17,0,0,1,2.34,0v3.254h-2.34Z" transform="translate(-680.32 -273.805)"/><path class="b" d="M708.648,319.912h3.888a.773.773,0,0,0,.773-.773v-4.027a2.718,2.718,0,1,0-5.436,0v4.027A.773.773,0,0,0,708.648,319.912Zm.773-4.8a1.17,1.17,0,1,1,2.34,0v3.253h-2.34Z" transform="translate(-680.32 -269.633)"/><path class="b" d="M708.648,294.329h3.888a.773.773,0,0,0,.773-.775v-4.027a2.718,2.718,0,0,0-5.436,0v4.027A.772.772,0,0,0,708.648,294.329Zm.773-4.8a1.17,1.17,0,0,1,2.34,0v3.254h-2.34Z" transform="translate(-680.32 -275.908)"/><path class="b" d="M714.954,311.422h3.889a.772.772,0,0,0,.773-.773v-4.027a2.718,2.718,0,0,0-5.436,0v4.027A.773.773,0,0,0,714.954,311.422Zm.775-4.8a1.17,1.17,0,1,1,2.34,0v3.253h-2.34Z" transform="translate(-678.773 -271.715)"/><path class="b" d="M714.954,302.9h3.889a.773.773,0,0,0,.773-.773V298.1a2.718,2.718,0,1,0-5.436,0v4.027A.773.773,0,0,0,714.954,302.9Zm.775-4.8a1.17,1.17,0,0,1,2.34,0v3.254h-2.34Z" transform="translate(-678.773 -273.805)"/><path class="b" d="M714.954,319.912h3.889a.773.773,0,0,0,.773-.773v-4.027a2.718,2.718,0,1,0-5.436,0v4.027A.773.773,0,0,0,714.954,319.912Zm.775-4.8a1.17,1.17,0,1,1,2.34,0v3.253h-2.34Z" transform="translate(-678.773 -269.633)"/><path class="b" d="M714.954,294.329h3.889a.773.773,0,0,0,.773-.775v-4.027a2.718,2.718,0,0,0-5.436,0v4.027A.772.772,0,0,0,714.954,294.329Zm.775-4.8a1.17,1.17,0,0,1,2.34,0v3.254h-2.34Z" transform="translate(-678.773 -275.908)"/></g></g></g></svg>